<?xml version="1.0" encoding="utf-8"?>
<!-- Generator: Adobe Illustrator 22.0.1, SVG Export Plug-In . SVG Version: 6.00 Build 0)  -->
<svg version="1.1" id="Layer_1" xmlns="http://www.w3.org/2000/svg" xmlns:xlink="http://www.w3.org/1999/xlink" x="0px" y="0px"
	 viewBox="0 0 155.3 89.9" style="enable-background:new 0 0 155.3 89.9;" xml:space="preserve">
<style type="text/css">
	.st0{fill:#FFFFFF;}
	.st1{fill:#FFFFFF;stroke:#FFFFFF;stroke-width:0.25;stroke-miterlimit:10;}
</style>
<g>
	<g id="Layer_2_11_">
		<g id="BACKGROUNDS_11_">
			<path class="st0" d="M76.6,48c-2.1-3.6-4.2-7.3-6.2-11l-3.1-5.5L64.2,26c-2-3.7-4.1-7.4-6.1-11.1s-4-7.4-6-11.1l-0.5-0.9h1.1
				l5.9,0l5.9,0C68.4,3,72.3,3,76.2,3c3.9,0,7.8,0.1,11.7,0.2c3.9,0.1,7.8,0.2,11.7,0.3C95.8,3.7,91.9,3.7,88,3.8
				C84.1,3.9,80.2,4,76.2,4c-3.9,0-7.8,0.1-11.7,0.1l-5.9,0l-5.9,0l0.6-0.9c2,3.7,4,7.4,5.9,11.1c2,3.7,3.9,7.4,5.9,11.2l2.9,5.6
				l2.9,5.6C72.8,40.5,74.8,44.2,76.6,48z"/>
			<path class="st0" d="M57.2,6c2.1,3.7,4.1,7.3,6.1,11l3,5.5c0.5,0.9,1,1.8,1.5,2.8l1.5,2.8l1.5,2.8l1.5,2.8l3,5.6l3,5.6l2.9,5.6
				h-1.1l2.9-5.5l3-5.5l3-5.5l1.5-2.7l1.5-2.7l1.5-2.7c0.5-0.9,1-1.8,1.5-2.7l3-5.4c2-3.6,4.1-7.2,6.1-10.8
				c-1.8,3.7-3.7,7.4-5.6,11.1l-2.8,5.5c-0.5,0.9-1,1.8-1.4,2.8l-1.4,2.8l-1.4,2.8L90,34.4l-2.9,5.5l-2.9,5.5l-2.9,5.5L80.7,52
				l-0.6-1.1l-2.9-5.6l-2.9-5.6l-2.9-5.6l-1.4-2.8l-1.4-2.8l-1.4-2.8c-0.5-0.9-1-1.9-1.4-2.8l-2.8-5.6C60.9,13.6,59.1,9.8,57.2,6z"
				/>
			<path class="st0" d="M80.7,45.4c1.8-3.8,3.7-7.6,5.6-11.3l2.8-5.6l2.9-5.6c1.9-3.8,3.8-7.5,5.8-11.2s3.9-7.5,5.8-11.2l0.6,0.9
				l-5.9,0l-5.9,0c-3.9,0-7.8-0.1-11.7-0.1c-3.9,0-7.8-0.1-11.7-0.2C65,0.9,61.1,0.8,57.2,0.6c3.9-0.1,7.8-0.2,11.7-0.3
				c3.9-0.1,7.8-0.1,11.7-0.2c3.9,0,7.8-0.1,11.7-0.1l5.9,0l5.9,0h1l-0.5,0.9c-1.9,3.7-3.9,7.5-5.9,11.2s-4,7.4-6,11.1l-3,5.6
				l-3,5.5C84.8,38,82.7,41.7,80.7,45.4z"/>
		</g>
	</g>
	<g>
		<g>
			<path class="st1" d="M0.1,83.3c0-0.1,0-0.1,0.1-0.2c0.1,0,0.1-0.1,0.2-0.1h5.7c0.1,0,0.1,0,0.2,0.1s0.1,0.1,0.1,0.2v0.4
				c0,0.1,0,0.1-0.1,0.2c0,0-0.1,0.1-0.2,0.1H1.2v5.6c0,0.1,0,0.1-0.1,0.2S1,89.7,1,89.7H0.4c-0.1,0-0.1,0-0.2-0.1
				c-0.1,0-0.1-0.1-0.1-0.2V83.3z M2,86.4c0-0.1,0-0.1,0.1-0.2c0.1,0,0.1-0.1,0.2-0.1h3.4c0.1,0,0.1,0,0.2,0.1s0.1,0.1,0.1,0.2v0.4
				c0,0.1,0,0.1-0.1,0.2C5.8,87,5.7,87,5.7,87H2.3c-0.1,0-0.1,0-0.2-0.1C2,86.9,2,86.8,2,86.8V86.4z"/>
			<path class="st1" d="M11.1,83.3c0-0.1,0-0.1,0.1-0.2s0.1-0.1,0.2-0.1h4.2c0.3,0,0.6,0.1,0.9,0.2c0.3,0.1,0.5,0.3,0.7,0.4
				c0.2,0.2,0.4,0.4,0.5,0.6c0.1,0.2,0.2,0.5,0.2,0.8c0,0.2,0,0.5-0.1,0.7s-0.2,0.4-0.4,0.6c-0.2,0.2-0.3,0.3-0.5,0.4
				c-0.2,0.1-0.4,0.2-0.7,0.3l2,2.5c0,0,0,0.1,0,0.1c0,0,0,0.1-0.1,0.1h-0.9c-0.1,0-0.1,0-0.2-0.1c-0.1,0-0.1-0.1-0.2-0.1l-1.9-2.4
				h-1.7c-0.1,0-0.1,0-0.2-0.1c0,0-0.1-0.1-0.1-0.2v-0.4c0-0.1,0-0.1,0.1-0.2s0.1-0.1,0.2-0.1h2.2c0.4,0,0.7-0.1,0.9-0.3
				c0.3-0.2,0.4-0.5,0.4-0.8s-0.1-0.6-0.4-0.8s-0.6-0.3-0.9-0.3h-3.3v5.6c0,0.1,0,0.1-0.1,0.2c-0.1,0-0.1,0.1-0.2,0.1h-0.6
				c-0.1,0-0.1,0-0.2-0.1c0,0-0.1-0.1-0.1-0.2V83.3z"/>
			<path class="st1" d="M24.7,88.8h5c0.1,0,0.1,0,0.2,0.1c0.1,0,0.1,0.1,0.1,0.2v0.4c0,0.1,0,0.1-0.1,0.2s-0.1,0.1-0.2,0.1h-5.9
				c-0.1,0-0.1,0-0.2-0.1c-0.1,0-0.1-0.1-0.1-0.2v-6.2c0-0.1,0-0.1,0.1-0.2c0.1,0,0.1-0.1,0.2-0.1h5.8c0.1,0,0.1,0,0.2,0.1
				s0.1,0.1,0.1,0.2v0.4c0,0.1,0,0.1-0.1,0.2c-0.1,0-0.1,0.1-0.2,0.1h-4.9V88.8z M25.5,86c0-0.1,0-0.1,0.1-0.2c0,0,0.1-0.1,0.2-0.1
				h3.5c0.1,0,0.1,0,0.2,0.1s0.1,0.1,0.1,0.2v0.4c0,0.1,0,0.1-0.1,0.2c-0.1,0-0.1,0.1-0.2,0.1h-3.5c-0.1,0-0.1,0-0.2-0.1
				c0,0-0.1-0.1-0.1-0.2V86z"/>
			<path class="st1" d="M35.4,83.3c0-0.1,0-0.1,0.1-0.2c0.1,0,0.1-0.1,0.2-0.1h0.6c0.1,0,0.1,0,0.2,0.1c0.1,0,0.1,0.1,0.1,0.2v6.2
				c0,0.1,0,0.1-0.1,0.2s-0.1,0.1-0.2,0.1h-0.6c-0.1,0-0.1,0-0.2-0.1c-0.1,0-0.1-0.1-0.1-0.2V83.3z"/>
			<path class="st1" d="M41.2,83.3c0-0.1,0-0.1,0.1-0.2c0,0,0.1-0.1,0.2-0.1h6.6c0.1,0,0.1,0,0.2,0.1c0,0,0.1,0.1,0.1,0.2v0.4
				c0,0.2-0.1,0.2-0.3,0.2h-6.6c-0.1,0-0.1,0-0.2-0.1c0,0-0.1-0.1-0.1-0.2V83.3z M44.2,84.9c0-0.1,0-0.1,0.1-0.2s0.1-0.1,0.2-0.1H45
				c0.1,0,0.1,0,0.2,0.1c0,0,0.1,0.1,0.1,0.2v4.6c0,0.1,0,0.1-0.1,0.2c0,0-0.1,0.1-0.2,0.1h-0.6c-0.1,0-0.1,0-0.2-0.1
				c-0.1,0-0.1-0.1-0.1-0.2V84.9z"/>
			<path class="st1" d="M56.6,86.2l3.3,3.3c0,0,0.1,0.1,0.1,0.1c0,0,0,0.1-0.1,0.1h-1.1c-0.1,0-0.1,0-0.2-0.1l-2.6-2.7l-2.4,2.7
				c0,0-0.1,0-0.1,0.1s-0.1,0-0.1,0h-1c-0.1,0-0.1,0-0.1-0.1c0,0,0-0.1,0.1-0.1l5.8-6.4c0.1-0.1,0.1-0.1,0.2-0.1h1
				c0.1,0,0.1,0,0.1,0.1c0,0,0,0.1-0.1,0.1L56.6,86.2z M52.3,83.3c0,0-0.1-0.1-0.1-0.1c0,0,0-0.1,0.1-0.1h1c0.1,0,0.1,0,0.2,0.1
				l1.8,1.8c0,0,0,0.1,0,0.1c0,0,0,0,0,0.1l-0.5,0.6c0,0-0.1,0-0.1,0c0,0-0.1,0-0.1,0L52.3,83.3z"/>
			<path class="st1" d="M78.7,83.3c0-0.1,0-0.1,0.1-0.2c0.1,0,0.1-0.1,0.2-0.1h0.5c0.1,0,0.1,0,0.2,0.1s0.1,0.1,0.1,0.2v6.2
				c0,0.1,0,0.1-0.1,0.2c-0.1,0-0.1,0.1-0.2,0.1h-0.5c-0.1,0-0.1,0-0.2-0.1c-0.1,0-0.2-0.1-0.2-0.1l-6-6.3c0,0-0.1-0.1-0.1-0.1
				c0,0,0-0.1,0.1-0.1h0.9c0.1,0,0.1,0,0.2,0.1l5.1,5.4V83.3z M73.5,89.5c0,0.1,0,0.1-0.1,0.2c0,0-0.1,0.1-0.2,0.1h-0.5
				c-0.1,0-0.1,0-0.2-0.1c0,0-0.1-0.1-0.1-0.2v-5.1c0-0.1,0-0.1,0.1-0.1s0.1,0,0.2,0.1l0.7,0.7c0.1,0.1,0.1,0.1,0.1,0.2V89.5z"/>
			<path class="st1" d="M87.1,88.8h5c0.1,0,0.1,0,0.2,0.1c0.1,0,0.1,0.1,0.1,0.2v0.4c0,0.1,0,0.1-0.1,0.2s-0.1,0.1-0.2,0.1h-5.9
				c-0.1,0-0.1,0-0.2-0.1S86,89.6,86,89.5v-6.2c0-0.1,0-0.1,0.1-0.2s0.1-0.1,0.2-0.1H92c0.1,0,0.1,0,0.2,0.1s0.1,0.1,0.1,0.2v0.4
				c0,0.1,0,0.1-0.1,0.2c-0.1,0-0.1,0.1-0.2,0.1h-5V88.8z M87.8,86c0-0.1,0-0.1,0.1-0.2s0.1-0.1,0.2-0.1h3.5c0.1,0,0.1,0,0.2,0.1
				s0.1,0.1,0.1,0.2v0.4c0,0.1,0,0.1-0.1,0.2c-0.1,0-0.1,0.1-0.2,0.1h-3.5c-0.1,0-0.1,0-0.2-0.1c0,0-0.1-0.1-0.1-0.2V86z"/>
			<path class="st1" d="M96.2,83.3c0-0.1,0-0.1,0.1-0.2c0,0,0.1-0.1,0.2-0.1h6.6c0.1,0,0.1,0,0.2,0.1s0.1,0.1,0.1,0.2v0.4
				c0,0.2-0.1,0.2-0.3,0.2h-6.6c-0.1,0-0.1,0-0.2-0.1c0,0-0.1-0.1-0.1-0.2V83.3z M99.2,84.9c0-0.1,0-0.1,0.1-0.2s0.1-0.1,0.2-0.1
				h0.6c0.1,0,0.1,0,0.2,0.1s0.1,0.1,0.1,0.2v4.6c0,0.1,0,0.1-0.1,0.2c0,0-0.1,0.1-0.2,0.1h-0.6c-0.1,0-0.1,0-0.2-0.1
				c-0.1,0-0.1-0.1-0.1-0.2V84.9z"/>
			<path class="st1" d="M106.8,83.3C106.8,83.2,106.8,83.2,106.8,83.3c0-0.2,0-0.2,0.2-0.2h0.8c0.1,0,0.1,0,0.1,0.1l1.9,5.4l1.6-2.5
				c0-0.1,0.1-0.1,0.2-0.1c0.1,0,0.1-0.1,0.2-0.1h0.4c0.1,0,0.1,0,0.2,0.1c0.1,0,0.1,0.1,0.1,0.1l2.1,3.6c0,0,0,0,0,0.1
				c0,0,0,0.1-0.1,0.1h-0.5c-0.1,0-0.1,0-0.2-0.1c-0.1,0-0.1-0.1-0.2-0.1l-1.8-2.9l-1.8,2.9c-0.1,0.1-0.2,0.2-0.4,0.2h-0.5
				c-0.1,0-0.1,0-0.1-0.1L106.8,83.3z M114.9,88.6c0,0.1-0.1,0.1-0.1,0.1c0,0-0.1,0-0.1-0.1l-0.4-0.7c0,0,0-0.1,0-0.1c0,0,0,0,0-0.1
				l1.6-4.5c0-0.1,0-0.1,0.1-0.1c0,0,0.1,0,0.1,0h0.7c0,0,0,0,0.1,0s0,0,0,0.1c0,0,0,0,0,0.1L114.9,88.6z"/>
			<path class="st1" d="M121.7,83.9c0-0.1,0-0.2,0.1-0.3s0.1-0.2,0.2-0.3c0.1-0.1,0.2-0.2,0.3-0.2c0.1-0.1,0.2-0.1,0.3-0.1h5.7
				c0.1,0,0.2,0,0.3,0.1c0.1,0.1,0.2,0.1,0.3,0.2s0.2,0.2,0.2,0.3c0.1,0.1,0.1,0.2,0.1,0.3v4.9c0,0.1,0,0.2-0.1,0.3
				c-0.1,0.1-0.1,0.2-0.2,0.3c-0.1,0.1-0.2,0.2-0.3,0.2c-0.1,0.1-0.2,0.1-0.3,0.1h-5.7c-0.1,0-0.2,0-0.3-0.1
				c-0.1-0.1-0.2-0.1-0.3-0.2c-0.1-0.1-0.2-0.2-0.2-0.3s-0.1-0.2-0.1-0.3V83.9z M122.8,88.8h5.4v-4.9h-5.4V88.8z"/>
			<path class="st1" d="M135.5,83.3c0-0.1,0-0.1,0.1-0.2c0,0,0.1-0.1,0.2-0.1h4.2c0.3,0,0.6,0.1,0.9,0.2s0.5,0.3,0.7,0.4
				c0.2,0.2,0.4,0.4,0.5,0.6c0.1,0.2,0.2,0.5,0.2,0.8c0,0.2,0,0.5-0.1,0.7s-0.2,0.4-0.4,0.6c-0.2,0.2-0.3,0.3-0.5,0.4
				c-0.2,0.1-0.4,0.2-0.7,0.3l2,2.5c0,0,0,0.1,0,0.1c0,0,0,0.1-0.1,0.1h-0.9c-0.1,0-0.1,0-0.2-0.1c-0.1,0-0.1-0.1-0.2-0.1l-1.9-2.4
				h-1.7c-0.1,0-0.1,0-0.2-0.1c0,0-0.1-0.1-0.1-0.2v-0.4c0-0.1,0-0.1,0.1-0.2s0.1-0.1,0.2-0.1h2.2c0.4,0,0.7-0.1,0.9-0.3
				c0.3-0.2,0.4-0.5,0.4-0.8s-0.1-0.6-0.4-0.8c-0.3-0.2-0.6-0.3-0.9-0.3h-3.3v5.6c0,0.1,0,0.1-0.1,0.2c-0.1,0-0.1,0.1-0.2,0.1h-0.6
				c-0.1,0-0.1,0-0.2-0.1c0,0-0.1-0.1-0.1-0.2V83.3z"/>
			<path class="st1" d="M148,83.3c0-0.1,0-0.1,0.1-0.2c0,0,0.1-0.1,0.2-0.1h0.6c0.1,0,0.1,0,0.2,0.1c0,0,0.1,0.1,0.1,0.2v2.3
				l5.9,3.9c0.1,0.1,0.2,0.1,0.2,0.2c0,0,0,0-0.1,0h-1.2c-0.1,0-0.2,0-0.3-0.1l-4.4-2.9v2.8c0,0.1,0,0.1-0.1,0.2
				c0,0-0.1,0.1-0.2,0.1h-0.6c-0.1,0-0.1,0-0.2-0.1c0,0-0.1-0.1-0.1-0.2V83.3z M150,85.4C150,85.4,150,85.4,150,85.4
				c0-0.1,0-0.1,0-0.2l3.2-2.1c0.1,0,0.1-0.1,0.2-0.1s0.1,0,0.2,0h1.1c0,0,0.1,0,0.1,0c0,0,0,0.1-0.1,0.1l-3.9,2.6c0,0-0.1,0-0.1,0
				c0,0-0.1,0-0.1,0L150,85.4z"/>
		</g>
	</g>
</g>
</svg>
